<?xml version="1.0" standalone="no"?>
<!DOCTYPE svg PUBLIC "-//W3C//DTD SVG 20010904//EN"
 "http://www.w3.org/TR/2001/REC-SVG-20010904/DTD/svg10.dtd">
<svg version="1.0" xmlns="http://www.w3.org/2000/svg"
 width="509.000000pt" height="509.000000pt" viewBox="0 0 509.000000 509.000000"
 preserveAspectRatio="xMidYMid meet">
<metadata>
Created by potrace 1.14, written by Peter Selinger 2001-2017
</metadata>
<g transform="translate(0.000000,509.000000) scale(0.100000,-0.100000)"
fill="#000000" stroke="none">
<path d="M2455 5078 c-123 -43 -1981 -839 -2023 -865 -97 -61 -200 -178 -239
-271 -46 -108 -52 -159 -48 -362 2 -107 6 -204 9 -215 2 -11 7 -51 10 -90 36
-382 133 -790 283 -1185 52 -136 205 -462 271 -575 41 -71 129 -211 160 -255
15 -21 34 -48 42 -60 106 -157 350 -431 517 -580 92 -83 107 -95 213 -177 175
-135 417 -283 602 -371 197 -93 382 -93 575 -1 417 200 842 528 1134 874 122
145 302 392 332 455 4 8 16 29 27 45 121 188 301 586 394 872 33 103 99 345
110 403 2 14 11 57 20 95 15 71 41 219 51 288 12 84 14 105 20 172 4 38 9 78
11 90 2 11 7 106 9 210 4 152 2 202 -10 250 -45 174 -141 306 -288 394 -34 20
-379 171 -767 335 -388 165 -826 350 -974 413 -243 103 -276 115 -340 118 -39
2 -84 -1 -101 -7z m-703 -1455 c12 -10 113 -141 226 -291 113 -150 219 -283
236 -295 30 -21 38 -22 321 -22 238 0 295 3 319 15 19 9 110 121 248 305 141
187 228 295 247 304 39 18 91 7 122 -25 l24 -26 1 -642 c2 -683 -1 -735 -47
-874 -94 -287 -323 -517 -609 -611 -219 -71 -466 -62 -672 26 -288 124 -501
378 -567 678 -21 95 -22 143 -23 772 0 587 1 634 18 662 9 16 27 34 38 40 29
15 94 6 118 -16z"/>
<path d="M2075 2516 c-66 -29 -110 -122 -90 -188 23 -72 91 -118 168 -113 191
12 191 297 0 312 -28 2 -61 -3 -78 -11z"/>
<path d="M2859 2507 c-56 -38 -74 -72 -74 -136 1 -43 6 -65 24 -89 31 -45 85
-70 141 -67 88 4 144 65 145 156 0 62 -17 94 -69 133 -40 30 -125 31 -167 3z"/>
</g>
</svg>
